<svg width="76" height="17" viewBox="0 0 76 17" fill="none" xmlns="http://www.w3.org/2000/svg">
<path d="M47.5259 1.9334V4.22442H46.0899V5.72686H47.5259V10.8318C47.5259 12.575 48.3145 13.2723 50.2984 13.2723C50.647 13.2723 50.9791 13.2308 51.2696 13.181V11.6951C51.0206 11.72 50.8628 11.7366 50.5889 11.7366C49.7007 11.7366 49.3106 11.3216 49.3106 10.3753V5.72686H51.2696V4.22442H49.3106V1.9334H47.5259Z" fill="black"/>
<path d="M56.3234 13.3968C58.9631 13.3968 60.5817 11.6287 60.5817 8.69854C60.5817 5.78497 58.9548 4.0086 56.3234 4.0086C53.6838 4.0086 52.0568 5.78497 52.0568 8.69854C52.0568 11.6287 53.6755 13.3968 56.3234 13.3968ZM56.3234 11.8113C54.7712 11.8113 53.8996 10.6741 53.8996 8.69854C53.8996 6.73956 54.7712 5.59405 56.3234 5.59405C57.8674 5.59405 58.7473 6.73956 58.7473 8.69854C58.7473 10.6658 57.8674 11.8113 56.3234 11.8113Z" fill="black"/>
<path d="M61.9666 13.2225H63.7513V7.88506C63.7513 6.61504 64.7059 5.76006 66.0589 5.76006C66.3743 5.76006 66.9056 5.81817 67.055 5.86797V4.10821C66.8641 4.0584 66.5238 4.0335 66.2581 4.0335C65.0794 4.0335 64.075 4.68096 63.8177 5.56915H63.6849V4.18292H61.9666V13.2225Z" fill="black"/>
<path d="M71.4863 5.52764C72.8061 5.52764 73.6694 6.44903 73.7109 7.86846H69.1455C69.2451 6.45733 70.1665 5.52764 71.4863 5.52764ZM73.7026 10.782C73.3706 11.4876 72.6318 11.8777 71.5527 11.8777C70.125 11.8777 69.2036 10.8733 69.1455 9.2879V9.18829H75.5288V8.56573C75.5288 5.72686 74.0097 4.0086 71.4946 4.0086C68.9463 4.0086 67.3276 5.84307 67.3276 8.73174C67.3276 11.6204 68.9131 13.3968 71.5029 13.3968C73.5698 13.3968 75.0141 12.4007 75.4209 10.782H73.7026Z" fill="black"/>
<path d="M35.8223 9.8843C35.96 12.104 37.8098 13.5236 40.5629 13.5236C43.5053 13.5236 45.3464 12.0352 45.3464 9.66061C45.3464 7.79365 44.2968 6.76123 41.7502 6.16758L40.3822 5.83205C38.7647 5.45349 38.1109 4.94588 38.1109 4.05972C38.1109 2.94126 39.1261 2.20997 40.6489 2.20997C42.0943 2.20997 43.0923 2.92406 43.273 4.06833H45.1486C45.0367 1.97767 43.1956 0.50647 40.6747 0.50647C37.9646 0.50647 36.1579 1.97767 36.1579 4.18877C36.1579 6.01272 37.1817 7.09676 39.4272 7.62158L41.0275 8.00874C42.6707 8.39589 43.3934 8.96373 43.3934 9.91011C43.3934 11.0114 42.2578 11.8115 40.7091 11.8115C39.0487 11.8115 37.8958 11.063 37.7323 9.8843H35.8223Z" fill="black"/>
<path d="M17.335 4.0335C16.1065 4.0335 15.044 4.64776 14.4961 5.67706H14.3633V4.18292H12.6451V16.2273H14.4297V11.8528H14.5708C15.044 12.8074 16.065 13.3719 17.3516 13.3719C19.6343 13.3719 21.087 11.5706 21.087 8.69854C21.087 5.82647 19.6343 4.0335 17.335 4.0335ZM16.8287 11.7698C15.3345 11.7698 14.3965 10.5911 14.3965 8.70684C14.3965 6.81426 15.3345 5.63555 16.837 5.63555C18.3477 5.63555 19.2525 6.78936 19.2525 8.69854C19.2525 10.616 18.3477 11.7698 16.8287 11.7698Z" fill="black"/>
<path d="M27.3318 4.0335C26.1033 4.0335 25.0408 4.64776 24.4929 5.67706H24.3601V4.18292H22.6419V16.2273H24.4265V11.8528H24.5676C25.0408 12.8074 26.0618 13.3719 27.3484 13.3719C29.6311 13.3719 31.0838 11.5706 31.0838 8.69854C31.0838 5.82647 29.6311 4.0335 27.3318 4.0335ZM26.8255 11.7698C25.3313 11.7698 24.3933 10.5911 24.3933 8.70684C24.3933 6.81426 25.3313 5.63555 26.8338 5.63555C28.3445 5.63555 29.2493 6.78936 29.2493 8.69854C29.2493 10.616 28.3445 11.7698 26.8255 11.7698Z" fill="black"/>
<path d="M9.44307 13.2225H11.4907L7.00827 0.807593H4.93482L0.452393 13.2225H2.4312L3.57547 9.92732H8.3074L9.44307 13.2225ZM5.87261 3.06171H6.01887L7.817 8.30986H4.06587L5.87261 3.06171Z" fill="black"/>
</svg>
