<svg width="19" height="23" viewBox="0 0 19 23" fill="none" xmlns="http://www.w3.org/2000/svg">
<path d="M15.769 12.0332C15.7907 10.3522 16.6934 8.76164 18.1256 7.88118C17.2221 6.59086 15.7088 5.77276 14.1344 5.7235C12.4552 5.54724 10.8272 6.72833 9.97149 6.72833C9.09922 6.72833 7.78172 5.741 6.36299 5.77019C4.51374 5.82994 2.78977 6.88132 1.89007 8.49806C-0.0439277 11.8465 1.39866 16.7675 3.25127 19.4741C4.17817 20.7995 5.26145 22.2799 6.6789 22.2274C8.06596 22.1699 8.584 21.343 10.2583 21.343C11.9171 21.343 12.4031 22.2274 13.8493 22.1941C15.3377 22.1699 16.2754 20.8628 17.1698 19.5249C17.8358 18.5806 18.3483 17.5368 18.6882 16.4324C16.9391 15.6926 15.771 13.9324 15.769 12.0332Z" fill="black"/>
<path d="M13.0373 3.9435C13.8489 2.96929 14.2487 1.71711 14.1518 0.452881C12.912 0.583101 11.7668 1.17566 10.9443 2.11249C10.14 3.02782 9.72143 4.25797 9.80056 5.47388C11.0408 5.48665 12.2601 4.91015 13.0373 3.9435Z" fill="black"/>
</svg>
