<svg width="56" height="8" viewBox="0 0 56 8" fill="none" xmlns="http://www.w3.org/2000/svg">
<path d="M4.69886 5.70643H1.90206L1.38686 7.13243H0.503662L2.82206 0.756826H3.78806L6.09726 7.13243H5.21406L4.69886 5.70643ZM4.45966 5.02563L3.30046 1.78723L2.14126 5.02563H4.45966Z" fill="#141414"/>
<path d="M8.43248 6.35963L9.99648 2.09083H10.8889L8.91088 7.13243H7.93568L5.95768 2.09083H6.85928L8.43248 6.35963Z" fill="#141414"/>
<path d="M11.4919 4.59323C11.4919 4.07803 11.5962 3.62723 11.8047 3.24083C12.0132 2.84829 12.2984 2.54469 12.6603 2.33003C13.0283 2.11536 13.4362 2.00803 13.8839 2.00803C14.3255 2.00803 14.7088 2.10309 15.0339 2.29323C15.359 2.48336 15.6012 2.72256 15.7607 3.01083V2.09083H16.6071V7.13243H15.7607V6.19403C15.5951 6.48843 15.3467 6.73376 15.0155 6.93003C14.6904 7.12016 14.3102 7.21523 13.8747 7.21523C13.427 7.21523 13.0222 7.10483 12.6603 6.88403C12.2984 6.66323 12.0132 6.35349 11.8047 5.95483C11.5962 5.55616 11.4919 5.10229 11.4919 4.59323ZM15.7607 4.60243C15.7607 4.22216 15.684 3.89096 15.5307 3.60883C15.3774 3.32669 15.1688 3.11203 14.9051 2.96483C14.6475 2.81149 14.3623 2.73483 14.0495 2.73483C13.7367 2.73483 13.4515 2.80843 13.1939 2.95563C12.9363 3.10283 12.7308 3.31749 12.5775 3.59963C12.4242 3.88176 12.3475 4.21296 12.3475 4.59323C12.3475 4.97963 12.4242 5.31696 12.5775 5.60523C12.7308 5.88736 12.9363 6.10509 13.1939 6.25843C13.4515 6.40563 13.7367 6.47923 14.0495 6.47923C14.3623 6.47923 14.6475 6.40563 14.9051 6.25843C15.1688 6.10509 15.3774 5.88736 15.5307 5.60523C15.684 5.31696 15.7607 4.98269 15.7607 4.60243Z" fill="#141414"/>
<path d="M18.2703 1.27203C18.1108 1.27203 17.9759 1.21683 17.8655 1.10643C17.7551 0.996026 17.6999 0.861092 17.6999 0.701625C17.6999 0.542159 17.7551 0.407226 17.8655 0.296826C17.9759 0.186426 18.1108 0.131226 18.2703 0.131226C18.4236 0.131226 18.5524 0.186426 18.6567 0.296826C18.7671 0.407226 18.8223 0.542159 18.8223 0.701625C18.8223 0.861092 18.7671 0.996026 18.6567 1.10643C18.5524 1.21683 18.4236 1.27203 18.2703 1.27203ZM18.6751 2.09083V7.13243H17.8379V2.09083H18.6751Z" fill="#141414"/>
<path d="M20.7552 0.324426V7.13243H19.918V0.324426H20.7552Z" fill="#141414"/>
<path d="M21.8692 4.59323C21.8692 4.07803 21.9735 3.62723 22.182 3.24083C22.3906 2.84829 22.6758 2.54469 23.0376 2.33003C23.4056 2.11536 23.8135 2.00803 24.2612 2.00803C24.7028 2.00803 25.0862 2.10309 25.4112 2.29323C25.7363 2.48336 25.9786 2.72256 26.138 3.01083V2.09083H26.9844V7.13243H26.138V6.19403C25.9724 6.48843 25.724 6.73376 25.3928 6.93003C25.0678 7.12016 24.6875 7.21523 24.252 7.21523C23.8043 7.21523 23.3995 7.10483 23.0376 6.88403C22.6758 6.66323 22.3906 6.35349 22.182 5.95483C21.9735 5.55616 21.8692 5.10229 21.8692 4.59323ZM26.138 4.60243C26.138 4.22216 26.0614 3.89096 25.908 3.60883C25.7547 3.32669 25.5462 3.11203 25.2824 2.96483C25.0248 2.81149 24.7396 2.73483 24.4268 2.73483C24.114 2.73483 23.8288 2.80843 23.5712 2.95563C23.3136 3.10283 23.1082 3.31749 22.9548 3.59963C22.8015 3.88176 22.7248 4.21296 22.7248 4.59323C22.7248 4.97963 22.8015 5.31696 22.9548 5.60523C23.1082 5.88736 23.3136 6.10509 23.5712 6.25843C23.8288 6.40563 24.114 6.47923 24.4268 6.47923C24.7396 6.47923 25.0248 6.40563 25.2824 6.25843C25.5462 6.10509 25.7547 5.88736 25.908 5.60523C26.0614 5.31696 26.138 4.98269 26.138 4.60243Z" fill="#141414"/>
<path d="M29.3284 3.02923C29.5001 2.72869 29.7516 2.48336 30.0828 2.29323C30.414 2.10309 30.7912 2.00803 31.2144 2.00803C31.6683 2.00803 32.0761 2.11536 32.438 2.33003C32.7999 2.54469 33.0851 2.84829 33.2936 3.24083C33.5021 3.62723 33.6064 4.07803 33.6064 4.59323C33.6064 5.10229 33.5021 5.55616 33.2936 5.95483C33.0851 6.35349 32.7968 6.66323 32.4288 6.88403C32.0669 7.10483 31.6621 7.21523 31.2144 7.21523C30.7789 7.21523 30.3956 7.12016 30.0644 6.93003C29.7393 6.73989 29.494 6.49763 29.3284 6.20323V7.13243H28.4912V0.324426H29.3284V3.02923ZM32.7508 4.59323C32.7508 4.21296 32.6741 3.88176 32.5208 3.59963C32.3675 3.31749 32.1589 3.10283 31.8952 2.95563C31.6376 2.80843 31.3524 2.73483 31.0396 2.73483C30.7329 2.73483 30.4477 2.81149 30.184 2.96483C29.9264 3.11203 29.7179 3.32976 29.5584 3.61803C29.4051 3.90016 29.3284 4.22829 29.3284 4.60243C29.3284 4.98269 29.4051 5.31696 29.5584 5.60523C29.7179 5.88736 29.9264 6.10509 30.184 6.25843C30.4477 6.40563 30.7329 6.47923 31.0396 6.47923C31.3524 6.47923 31.6376 6.40563 31.8952 6.25843C32.1589 6.10509 32.3675 5.88736 32.5208 5.60523C32.6741 5.31696 32.7508 4.97963 32.7508 4.59323Z" fill="#141414"/>
<path d="M35.5456 0.324426V7.13243H34.7084V0.324426H35.5456Z" fill="#141414"/>
<path d="M41.6645 4.41843C41.6645 4.57789 41.6553 4.74656 41.6369 4.92443H37.6073C37.6379 5.42123 37.8066 5.81069 38.1133 6.09283C38.4261 6.36883 38.8033 6.50683 39.2449 6.50683C39.6067 6.50683 39.9073 6.42403 40.1465 6.25843C40.3918 6.08669 40.5635 5.85976 40.6617 5.57763H41.5633C41.4283 6.06216 41.1585 6.45776 40.7537 6.76443C40.3489 7.06496 39.8459 7.21523 39.2449 7.21523C38.7665 7.21523 38.3371 7.10789 37.9569 6.89323C37.5827 6.67856 37.2883 6.37496 37.0737 5.98243C36.859 5.58376 36.7517 5.12376 36.7517 4.60243C36.7517 4.08109 36.8559 3.62416 37.0645 3.23163C37.273 2.83909 37.5643 2.53856 37.9385 2.33003C38.3187 2.11536 38.7542 2.00803 39.2449 2.00803C39.7233 2.00803 40.1465 2.11229 40.5145 2.32083C40.8825 2.52936 41.1646 2.81763 41.3609 3.18563C41.5633 3.54749 41.6645 3.95843 41.6645 4.41843ZM40.7997 4.24363C40.7997 3.92469 40.7291 3.65176 40.5881 3.42483C40.447 3.19176 40.2538 3.01696 40.0085 2.90043C39.7693 2.77776 39.5025 2.71643 39.2081 2.71643C38.7849 2.71643 38.423 2.85136 38.1225 3.12123C37.8281 3.39109 37.6594 3.76523 37.6165 4.24363H40.7997Z" fill="#141414"/>
<path d="M47.6051 7.21523C47.1328 7.21523 46.7035 7.10789 46.3171 6.89323C45.9368 6.67856 45.6363 6.37496 45.4155 5.98243C45.2008 5.58376 45.0935 5.12376 45.0935 4.60243C45.0935 4.08723 45.2039 3.63336 45.4247 3.24083C45.6516 2.84216 45.9583 2.53856 46.3447 2.33003C46.7311 2.11536 47.1635 2.00803 47.6419 2.00803C48.1203 2.00803 48.5527 2.11536 48.9391 2.33003C49.3255 2.53856 49.6291 2.83909 49.8499 3.23163C50.0768 3.62416 50.1903 4.08109 50.1903 4.60243C50.1903 5.12376 50.0737 5.58376 49.8407 5.98243C49.6137 6.37496 49.304 6.67856 48.9115 6.89323C48.5189 7.10789 48.0835 7.21523 47.6051 7.21523ZM47.6051 6.47923C47.9056 6.47923 48.1877 6.40869 48.4515 6.26763C48.7152 6.12656 48.9268 5.91496 49.0863 5.63283C49.2519 5.35069 49.3347 5.00723 49.3347 4.60243C49.3347 4.19763 49.2549 3.85416 49.0955 3.57203C48.936 3.28989 48.7275 3.08136 48.4699 2.94643C48.2123 2.80536 47.9332 2.73483 47.6327 2.73483C47.326 2.73483 47.0439 2.80536 46.7863 2.94643C46.5348 3.08136 46.3324 3.28989 46.1791 3.57203C46.0257 3.85416 45.9491 4.19763 45.9491 4.60243C45.9491 5.01336 46.0227 5.35989 46.1699 5.64203C46.3232 5.92416 46.5256 6.13576 46.7771 6.27683C47.0285 6.41176 47.3045 6.47923 47.6051 6.47923Z" fill="#141414"/>
<path d="M53.9314 1.99883C54.5448 1.99883 55.0416 2.18589 55.4218 2.56003C55.8021 2.92803 55.9922 3.46163 55.9922 4.16083V7.13243H55.1642V4.28043C55.1642 3.77749 55.0385 3.39416 54.787 3.13043C54.5356 2.86056 54.1921 2.72563 53.7566 2.72563C53.315 2.72563 52.9624 2.86363 52.6986 3.13963C52.441 3.41563 52.3122 3.81736 52.3122 4.34483V7.13243H51.475V2.09083H52.3122V2.80843C52.4778 2.55083 52.7017 2.35149 52.9838 2.21043C53.2721 2.06936 53.588 1.99883 53.9314 1.99883Z" fill="#141414"/>
</svg>
