<svg width="43" height="20" viewBox="0 0 43 20" fill="none" xmlns="http://www.w3.org/2000/svg">
<path d="M38.6378 10.7528L29.6797 9.34906L30.8672 14.6871L38.6378 10.7528Z" fill="#D12053"/>
<path d="M38.6398 10.7512L31.8895 1.37247L29.6833 9.34915L38.6398 10.7512Z" fill="#E2136E"/>
<path d="M29.4736 9.2418L22.4006 0.202576L31.6628 1.30904L29.4736 9.2418Z" fill="#D12053"/>
<path d="M26.252 5.4653L22.3245 1.76413H23.3583L26.252 5.4653Z" fill="#9E1638"/>
<path d="M40.5502 6.19189L38.888 10.7005L36.1936 6.97402L40.5502 6.19189Z" fill="#D12053"/>
<path d="M31.9141 14.4152L38.4363 11.7951L38.71 10.9623L31.9141 14.4152Z" fill="#E2136E"/>
<path d="M26.6992 19.3611L29.4933 9.56L30.9105 15.937L26.6992 19.3611Z" fill="#9E1638"/>
<path d="M40.8101 6.22809L40.1243 8.08965L42.5973 8.04911L40.8101 6.22809ZM0.859131 6.97474C0.979068 6.98488 1.10069 7.00684 1.22908 7.00684C1.35746 7.00684 1.4622 6.98488 1.59903 6.97474V10.9394C1.98925 10.2756 2.48082 9.83804 3.20382 9.83804C4.51131 9.83804 5.07214 11.132 5.07214 12.3212C5.07214 13.7453 4.31198 15.1085 2.97915 15.1085C2.7123 15.1144 2.44893 15.0471 2.21757 14.914C1.98621 14.7809 1.79567 14.5871 1.6666 14.3534C1.44361 14.5494 1.24597 14.7842 1.03481 14.997H0.865888L0.859131 6.97474ZM1.58213 12.8061C1.58213 13.9615 2.07202 14.7673 2.8778 14.7673C3.92345 14.7673 4.25961 13.3618 4.25961 12.3652C4.25961 11.208 3.87784 10.2975 2.97239 10.2874C1.91492 10.2789 1.58213 11.5307 1.58213 12.8078V12.8061Z" fill="#E2136E"/>
<path d="M8.48316 9.5388L7.69596 10.5524C8.43586 11.6335 9.20278 12.6927 9.94605 13.7873L10.6961 14.9698V15.0289C10.512 15.0171 10.3447 14.9934 10.1893 14.9934C10.0339 14.9934 9.83794 15.0171 9.67239 15.0289C9.46799 14.6505 9.26528 14.3008 9.03385 13.9579L7.00674 10.9595C6.96113 10.9122 6.85133 10.875 6.85133 10.924V15.0289C6.70268 15.0171 6.5726 14.9934 6.44422 14.9934C6.31584 14.9934 6.16718 15.0171 6.03711 15.0289V6.97451C6.16718 6.98464 6.30739 7.00998 6.44422 7.00998C6.58105 7.00998 6.70268 6.98464 6.85133 6.97451V10.6098C6.85133 10.6807 6.98985 10.6334 7.08107 10.5388C7.25702 10.3564 7.42175 10.1635 7.57434 9.96112L9.85315 6.97113C9.97308 6.98127 10.093 7.0066 10.2231 7.0066C10.3532 7.0066 10.4528 6.98127 10.5846 6.97113L8.48316 9.5388ZM14.6135 14.1218C14.6135 14.5407 14.5864 14.7535 15.1321 14.615V14.8498C15.0429 14.8945 14.9496 14.9301 14.8534 14.9563C14.3719 15.0525 13.9732 14.9664 13.8989 14.3363L13.8161 14.4292C13.6552 14.6401 13.4476 14.8108 13.2096 14.9281C12.9716 15.0453 12.7098 15.1058 12.4445 15.1049C11.789 15.1049 11.2147 14.588 11.2147 13.7957C11.2147 12.5744 12.0593 12.4139 12.9259 12.2534C13.659 12.1149 13.9091 12.0507 13.9091 11.5355C13.9091 10.7416 13.5205 10.2821 12.8262 10.2821C12.5891 10.2774 12.3563 10.3458 12.1593 10.4778C11.9623 10.6098 11.8107 10.7992 11.7248 11.0203H11.6235V10.4257C12.0403 10.063 12.5696 9.85534 13.1219 9.8378C14.0932 9.8378 14.6219 10.4257 14.6219 11.6369L14.6135 14.1218ZM13.8736 12.3531L13.5476 12.4274C12.9175 12.566 11.9732 12.6724 11.9732 13.6505C11.9732 14.3262 12.311 14.664 12.8786 14.664C13.1722 14.6279 13.4407 14.4803 13.6286 14.2518C13.6962 14.1741 13.882 13.9917 13.882 13.914L13.8736 12.3531ZM16.2639 13.9799C16.4835 14.4005 16.8923 14.7772 17.3281 14.7772C17.5768 14.7645 17.8108 14.6555 17.9804 14.4732C18.1501 14.2909 18.2421 14.0498 18.2369 13.8008C18.2369 12.3548 16.0493 13.294 16.0493 11.4223C16.0493 10.3953 16.725 9.83949 17.5579 9.83949C17.9261 9.83138 18.2893 9.92733 18.6052 10.1165C18.514 10.3644 18.4406 10.6184 18.3856 10.8767H18.3011C18.1795 10.5236 17.8569 10.1689 17.5139 10.1689C17.0511 10.1689 16.6693 10.4814 16.6693 11.0608C16.6693 12.4308 18.8569 11.7011 18.8569 13.4157C18.8569 14.5627 17.9683 15.1049 17.1507 15.1049C16.7413 15.1046 16.3404 14.9874 15.9953 14.7671C16.0782 14.5101 16.1431 14.2476 16.1896 13.9816L16.2639 13.9799ZM20.1036 6.97451C20.2269 6.98464 20.3468 7.0066 20.4752 7.0066C20.6036 7.0066 20.7083 6.98464 20.8468 6.97451V10.875C21.1712 10.2213 21.6796 9.8378 22.3385 9.8378C23.4128 9.8378 23.8301 10.5743 23.8301 11.9257V15.0289C23.6899 15.0171 23.5818 14.9968 23.4584 14.9968C23.3351 14.9968 23.2084 15.0188 23.0868 15.0289V12.1707C23.0868 10.9882 22.8486 10.3919 22.0597 10.3919C21.2252 10.3919 20.8468 10.9933 20.8468 12.1065V15.0289C20.7083 15.0171 20.5985 14.9968 20.4752 14.9968C20.3519 14.9968 20.2286 15.0188 20.1036 15.0289V6.97451Z" fill="#231F20"/>
</svg>
