<svg width="70" height="7" viewBox="0 0 70 7" fill="none" xmlns="http://www.w3.org/2000/svg">
<path d="M0.651123 0.443359V6.43237H2.81348C4.59814 6.43237 5.63159 5.33252 5.63159 3.41919C5.63159 1.53491 4.58984 0.443359 2.81348 0.443359H0.651123ZM1.58081 1.29004H2.70972C3.95068 1.29004 4.6853 2.07861 4.6853 3.43164C4.6853 4.80542 3.96313 5.58569 2.70972 5.58569H1.58081V1.29004Z" fill="black"/>
<path d="M8.79668 6.51953C10.1165 6.51953 10.9258 5.6355 10.9258 4.17041C10.9258 2.71362 10.1124 1.82544 8.79668 1.82544C7.47686 1.82544 6.66338 2.71362 6.66338 4.17041C6.66338 5.6355 7.4727 6.51953 8.79668 6.51953ZM8.79668 5.72681C8.02056 5.72681 7.58477 5.1582 7.58477 4.17041C7.58477 3.19092 8.02056 2.61816 8.79668 2.61816C9.56865 2.61816 10.0086 3.19092 10.0086 4.17041C10.0086 5.15405 9.56865 5.72681 8.79668 5.72681Z" fill="black"/>
<path d="M17.818 1.9126H16.9256L16.1205 5.36157H16.0499L15.1202 1.9126H14.2652L13.3355 5.36157H13.2691L12.4598 1.9126H11.555L12.8001 6.43237H13.7174L14.6471 3.10376H14.7176L15.6515 6.43237H16.577L17.818 1.9126Z" fill="black"/>
<path d="M18.8456 6.43237H19.7379V3.78857C19.7379 3.08301 20.1571 2.64307 20.817 2.64307C21.477 2.64307 21.7924 3.00415 21.7924 3.73047V6.43237H22.6847V3.50635C22.6847 2.4314 22.1286 1.82544 21.12 1.82544C20.4394 1.82544 19.9911 2.12842 19.7711 2.63062H19.7047V1.9126H18.8456V6.43237Z" fill="black"/>
<path d="M24.09 6.43237H24.9824V0.148682H24.09V6.43237Z" fill="black"/>
<path d="M28.3384 6.51953C29.6582 6.51953 30.4675 5.6355 30.4675 4.17041C30.4675 2.71362 29.6541 1.82544 28.3384 1.82544C27.0186 1.82544 26.2051 2.71362 26.2051 4.17041C26.2051 5.6355 27.0144 6.51953 28.3384 6.51953ZM28.3384 5.72681C27.5623 5.72681 27.1265 5.1582 27.1265 4.17041C27.1265 3.19092 27.5623 2.61816 28.3384 2.61816C29.1104 2.61816 29.5503 3.19092 29.5503 4.17041C29.5503 5.15405 29.1104 5.72681 28.3384 5.72681Z" fill="black"/>
<path d="M33.1263 5.75586C32.6407 5.75586 32.2879 5.51929 32.2879 5.11255C32.2879 4.71411 32.5701 4.50244 33.1927 4.46094L34.2967 4.39038V4.76807C34.2967 5.32837 33.7986 5.75586 33.1263 5.75586ZM32.898 6.50708C33.4915 6.50708 33.9854 6.24976 34.2552 5.79736H34.3257V6.43237H35.1849V3.34448C35.1849 2.38989 34.5457 1.82544 33.4126 1.82544C32.3875 1.82544 31.657 2.32349 31.5657 3.09961H32.429C32.5286 2.78003 32.8731 2.59741 33.3711 2.59741C33.9812 2.59741 34.2967 2.86719 34.2967 3.34448V3.73462L33.0723 3.80518C31.9974 3.87158 31.3914 4.34058 31.3914 5.15405C31.3914 5.97998 32.0264 6.50708 32.898 6.50708Z" fill="black"/>
<path d="M38.213 6.50708C38.8355 6.50708 39.3626 6.2124 39.6324 5.71851H39.703V6.43237H40.558V0.148682H39.6656V2.63062H39.5992C39.3543 2.13257 38.8314 1.83789 38.213 1.83789C37.0716 1.83789 36.337 2.74268 36.337 4.17041C36.337 5.60229 37.0633 6.50708 38.213 6.50708ZM38.4662 2.63892C39.2132 2.63892 39.6822 3.23242 39.6822 4.17456C39.6822 5.12085 39.2174 5.70605 38.4662 5.70605C37.7108 5.70605 37.2584 5.12915 37.2584 4.17041C37.2584 3.21997 37.7149 2.63892 38.4662 2.63892Z" fill="black"/>
<path d="M46.3444 6.51953C47.6643 6.51953 48.4736 5.6355 48.4736 4.17041C48.4736 2.71362 47.6601 1.82544 46.3444 1.82544C45.0246 1.82544 44.2111 2.71362 44.2111 4.17041C44.2111 5.6355 45.0205 6.51953 46.3444 6.51953ZM46.3444 5.72681C45.5683 5.72681 45.1325 5.1582 45.1325 4.17041C45.1325 3.19092 45.5683 2.61816 46.3444 2.61816C47.1164 2.61816 47.5563 3.19092 47.5563 4.17041C47.5563 5.15405 47.1164 5.72681 46.3444 5.72681Z" fill="black"/>
<path d="M49.6548 6.43237H50.5471V3.78857C50.5471 3.08301 50.9663 2.64307 51.6262 2.64307C52.2861 2.64307 52.6016 3.00415 52.6016 3.73047V6.43237H53.4939V3.50635C53.4939 2.4314 52.9377 1.82544 51.9292 1.82544C51.2485 1.82544 50.8003 2.12842 50.5803 2.63062H50.5139V1.9126H49.6548V6.43237Z" fill="black"/>
<path d="M57.6036 0.787842V1.93335H56.8856V2.68457H57.6036V5.23706C57.6036 6.10864 57.9979 6.45728 58.9898 6.45728C59.1642 6.45728 59.3302 6.43652 59.4754 6.41162V5.6687C59.3509 5.68115 59.2721 5.68945 59.1351 5.68945C58.691 5.68945 58.4959 5.48193 58.4959 5.00879V2.68457H59.4754V1.93335H58.4959V0.787842H57.6036Z" fill="black"/>
<path d="M60.6732 6.43237H61.5656V3.79272C61.5656 3.10791 61.9723 2.64722 62.7028 2.64722C63.3336 2.64722 63.6698 3.01245 63.6698 3.73462V6.43237H64.5622V3.51465C64.5622 2.4397 63.9687 1.82959 63.0058 1.82959C62.3251 1.82959 61.8478 2.13257 61.6278 2.63892H61.5573V0.148682H60.6732V6.43237Z" fill="black"/>
<path d="M67.7812 2.58496C68.4411 2.58496 68.8727 3.04565 68.8935 3.75537H66.6108C66.6606 3.0498 67.1213 2.58496 67.7812 2.58496ZM68.8894 5.21216C68.7233 5.56494 68.354 5.76001 67.8144 5.76001C67.1005 5.76001 66.6398 5.25781 66.6108 4.46509V4.41528H69.8024V4.104C69.8024 2.68457 69.0429 1.82544 67.7853 1.82544C66.5112 1.82544 65.7019 2.74268 65.7019 4.18701C65.7019 5.63135 66.4946 6.51953 67.7895 6.51953C68.8229 6.51953 69.5451 6.02148 69.7485 5.21216H68.8894Z" fill="black"/>
</svg>
