<svg width="97" height="17" viewBox="0 0 97 17" fill="none" xmlns="http://www.w3.org/2000/svg">
<path d="M22.7516 1.13115H24.7715V12.121H22.7516V1.13115Z" fill="#141414"/>
<path d="M0.5 6.70231C0.5 3.61355 2.83142 1.13329 6.039 1.13329C8.28161 1.13329 10.0489 2.2768 10.9695 3.9103L9.18748 4.97969C8.51926 3.74707 7.47987 3.09355 6.05401 3.09355C4.03434 3.09355 2.50466 4.72704 2.50466 6.70231C2.50466 8.70697 4.01964 10.3111 6.12812 10.3111C7.74692 10.3111 8.87572 9.39019 9.26159 7.96464H5.80166V6.03409H11.4298V6.83613C11.4298 9.76136 9.36571 12.2716 6.12812 12.2716C2.7423 12.2716 0.5 9.70195 0.5 6.70231Z" fill="#141414"/>
<path d="M12.3525 7.78671C12.3525 4.90558 14.4613 3.25739 16.6592 3.25739C17.8027 3.25739 18.8274 3.73237 19.4512 4.47501V3.43562H21.4558V12.1231H19.4512V10.994C18.8124 11.796 17.773 12.3013 16.6295 12.3013C14.5354 12.3013 12.3525 10.6228 12.3525 7.78671ZM19.555 7.757C19.555 6.28674 18.4412 5.08382 16.9562 5.08382C15.4713 5.08382 14.3278 6.25734 14.3278 7.757C14.3278 9.27137 15.4713 10.4596 16.9562 10.4596C18.4412 10.4596 19.555 9.25667 19.555 7.757Z" fill="#141414"/>
<path d="M25.7938 7.78671C25.7938 4.90558 27.9026 3.25739 30.1005 3.25739C31.244 3.25739 32.2686 3.73237 32.8925 4.47501V3.43562H34.8971V12.1231H32.8925V10.994C32.2539 11.796 31.2146 12.3013 30.0707 12.3013C27.977 12.3013 25.7938 10.6228 25.7938 7.78671ZM32.9966 7.757C32.9966 6.28674 31.8828 5.08382 30.3981 5.08382C28.9128 5.08382 27.7693 6.25734 27.7693 7.757C27.7693 9.27137 28.9128 10.4596 30.3981 10.4596C31.8825 10.4596 32.9966 9.25667 32.9966 7.757Z" fill="#141414"/>
<path d="M38.8048 7.69759L35.6566 3.43562H38.1072L40.0818 6.19762L42.0424 3.43562H44.4182L41.2994 7.7273L44.6261 12.1231H42.1759L40.0524 9.22727L37.988 12.1231H35.5375L38.8048 7.69759Z" fill="#141414"/>
<path d="M48.3846 11.6922L44.8206 3.43532H46.9588L49.3796 9.28638L51.6663 3.43532H53.7757L48.5926 16.1324H46.5582L48.3846 11.6922Z" fill="#141414"/>
<path d="M57.8907 10.3261L59.7321 8.87081C60.2818 9.80638 61.1283 10.3408 62.108 10.3408C63.1777 10.3408 63.7568 9.64346 63.7568 8.88551C63.7568 7.96494 62.658 7.68289 61.4995 7.32643C60.0442 6.86584 58.4257 6.30174 58.4257 4.23736C58.4257 2.50005 59.9404 1.1336 62.0188 1.1336C63.7718 1.1336 64.7815 1.80213 65.6576 2.70799L63.9944 3.97001C63.5338 3.28709 62.8953 2.93063 62.0342 2.93063C61.0542 2.93063 60.5195 3.46533 60.5195 4.16295C60.5195 5.02441 61.5592 5.30676 62.7324 5.69293C64.2027 6.16791 65.8655 6.82143 65.8655 8.90051C65.8655 10.6081 64.4994 12.2719 62.1233 12.2719C60.1627 12.2716 58.8707 11.4396 57.8907 10.3261Z" fill="#141414"/>
<path d="M66.03 3.43532H67.515V2.11357L69.5349 0.732422V3.43532H71.3023V5.23234H69.5349V8.48433C69.5349 9.99931 69.7429 10.237 71.3023 10.237V12.1228H71.0199C68.3323 12.1228 67.5153 11.2616 67.5153 8.49964V5.23234H66.0303L66.03 3.43532Z" fill="#141414"/>
<path d="M71.8376 7.78671C71.8376 5.26205 73.8272 3.25708 76.3369 3.25708C78.8315 3.25708 80.8365 5.26205 80.8365 7.78671C80.8365 10.2964 78.8315 12.3013 76.3369 12.3013C73.8272 12.3013 71.8376 10.2964 71.8376 7.78671ZM78.8616 7.78671C78.8616 6.33145 77.7474 5.14323 76.3369 5.14323C74.8963 5.14323 73.8122 6.33145 73.8122 7.78671C73.8122 9.22727 74.8963 10.4152 76.3369 10.4152C77.7474 10.4152 78.8616 9.22727 78.8616 7.78671Z" fill="#141414"/>
<path d="M83.8527 3.43532V4.72735C84.2535 3.86589 84.9812 3.43532 86.08 3.43532C86.7038 3.43532 87.2232 3.58384 87.6097 3.80648L86.852 5.70733C86.555 5.51439 86.2135 5.36587 85.6491 5.36587C84.4909 5.36587 83.8671 5.98968 83.8671 7.48935V12.1228H81.8624V3.43532H83.8527Z" fill="#141414"/>
<path d="M87.8335 7.80141C87.8335 5.26205 89.8082 3.25708 92.3478 3.25708C94.9319 3.25708 96.8181 5.15793 96.8181 7.7273V8.48433H89.7494C90.0167 9.70256 90.9967 10.534 92.4226 10.534C93.5364 10.534 94.4125 9.9252 94.8281 9.00433L96.4766 9.9546C95.7193 11.3511 94.3528 12.301 92.4226 12.301C89.69 12.301 87.8335 10.3111 87.8335 7.80141ZM89.8532 6.80643H94.7837C94.4866 5.64822 93.5958 5.02441 92.3482 5.02441C91.1449 5.02441 90.2097 5.75204 89.8532 6.80643Z" fill="#141414"/>
</svg>
