<svg width="40" height="7" viewBox="0 0 40 7" fill="none" xmlns="http://www.w3.org/2000/svg">
<path d="M6.41805 3.97537C6.41805 4.81337 6.17005 5.48037 5.67305 5.97837C5.10905 6.57037 4.37305 6.86637 3.46905 6.86637C2.60305 6.86637 1.86605 6.56636 1.26105 5.96636C0.655051 5.36536 0.352051 4.62136 0.352051 3.73336C0.352051 2.84436 0.655051 2.10037 1.26105 1.50037C1.86605 0.899365 2.60305 0.599366 3.46905 0.599366C3.89905 0.599366 4.31005 0.683365 4.70005 0.850365C5.09105 1.01837 5.40405 1.24137 5.63805 1.52037L5.11105 2.04837C4.71405 1.57337 4.16705 1.33637 3.46805 1.33637C2.83605 1.33637 2.29005 1.55837 1.82905 2.00237C1.36805 2.44637 1.13805 3.02337 1.13805 3.73237C1.13805 4.44137 1.36805 5.01836 1.82905 5.46236C2.29005 5.90636 2.83605 6.12837 3.46805 6.12837C4.13805 6.12837 4.69705 5.90536 5.14405 5.45836C5.43405 5.16737 5.60205 4.76236 5.64705 4.24337H3.46805V3.52237H6.37505C6.40505 3.67937 6.41805 3.83037 6.41805 3.97537Z" fill="#141414"/>
<path d="M11.0281 1.46942H8.29615V3.37142H10.7601V4.09242H8.29615V5.99442H11.0281V6.73242H7.52515V0.732422H11.0281V1.46942Z" fill="#141414"/>
<path d="M14.279 6.73242H13.508V1.46942H11.832V0.732422H15.955V1.46942H14.279V6.73242Z" fill="#141414"/>
<path d="M18.938 6.73242V0.732422H19.709V6.73242H18.938Z" fill="#141414"/>
<path d="M23.1281 6.73242H22.3572V1.46942H20.6812V0.732422H24.8042V1.46942H23.1281V6.73242Z" fill="#141414"/>
<path d="M32.6089 5.95741C32.0189 6.56341 31.2859 6.86641 30.4089 6.86641C29.5319 6.86641 28.7989 6.56341 28.2099 5.95741C27.6199 5.35141 27.3259 4.60941 27.3259 3.73241C27.3259 2.85541 27.6199 2.11341 28.2099 1.50741C28.7989 0.901412 29.5319 0.597412 30.4089 0.597412C31.2809 0.597412 32.0129 0.902412 32.6049 1.51141C33.1969 2.12041 33.4929 2.86041 33.4929 3.73241C33.4929 4.60941 33.1979 5.35141 32.6089 5.95741ZM28.7789 5.45441C29.2229 5.90441 29.7659 6.12841 30.4089 6.12841C31.0519 6.12841 31.5959 5.90341 32.0389 5.45441C32.4829 5.00441 32.7059 4.43041 32.7059 3.73241C32.7059 3.03441 32.4829 2.46041 32.0389 2.01041C31.5959 1.56041 31.0519 1.33641 30.4089 1.33641C29.7659 1.33641 29.2229 1.56141 28.7789 2.01041C28.3359 2.46041 28.1129 3.03441 28.1129 3.73241C28.1129 4.43041 28.3359 5.00441 28.7789 5.45441Z" fill="#141414"/>
<path d="M34.5749 6.73242V0.732422H35.513L38.429 5.39942H38.4619L38.429 4.24342V0.732422H39.1999V6.73242H38.3949L35.344 1.83842H35.3109L35.344 2.99442V6.73242H34.5749Z" fill="#141414"/>
<path d="M6.41805 3.97537C6.41805 4.81337 6.17005 5.48037 5.67305 5.97837C5.10905 6.57037 4.37305 6.86637 3.46905 6.86637C2.60305 6.86637 1.86605 6.56636 1.26105 5.96636C0.655051 5.36536 0.352051 4.62136 0.352051 3.73336C0.352051 2.84436 0.655051 2.10037 1.26105 1.50037C1.86605 0.899365 2.60305 0.599366 3.46905 0.599366C3.89905 0.599366 4.31005 0.683365 4.70005 0.850365C5.09105 1.01837 5.40405 1.24137 5.63805 1.52037L5.11105 2.04837C4.71405 1.57337 4.16705 1.33637 3.46805 1.33637C2.83605 1.33637 2.29005 1.55837 1.82905 2.00237C1.36805 2.44637 1.13805 3.02337 1.13805 3.73237C1.13805 4.44137 1.36805 5.01836 1.82905 5.46236C2.29005 5.90636 2.83605 6.12837 3.46805 6.12837C4.13805 6.12837 4.69705 5.90536 5.14405 5.45836C5.43405 5.16737 5.60205 4.76236 5.64705 4.24337H3.46805V3.52237H6.37505C6.40505 3.67937 6.41805 3.83037 6.41805 3.97537Z" stroke="#141414" stroke-width="0.2" stroke-miterlimit="10"/>
<path d="M11.0281 1.46942H8.29615V3.37142H10.7601V4.09242H8.29615V5.99442H11.0281V6.73242H7.52515V0.732422H11.0281V1.46942Z" stroke="#141414" stroke-width="0.2" stroke-miterlimit="10"/>
<path d="M14.279 6.73242H13.508V1.46942H11.832V0.732422H15.955V1.46942H14.279V6.73242Z" stroke="#141414" stroke-width="0.2" stroke-miterlimit="10"/>
<path d="M18.938 6.73242V0.732422H19.709V6.73242H18.938Z" stroke="#141414" stroke-width="0.2" stroke-miterlimit="10"/>
<path d="M23.1281 6.73242H22.3572V1.46942H20.6812V0.732422H24.8042V1.46942H23.1281V6.73242Z" stroke="#141414" stroke-width="0.2" stroke-miterlimit="10"/>
<path d="M32.6089 5.95741C32.0189 6.56341 31.2859 6.86641 30.4089 6.86641C29.5319 6.86641 28.7989 6.56341 28.2099 5.95741C27.6199 5.35141 27.3259 4.60941 27.3259 3.73241C27.3259 2.85541 27.6199 2.11341 28.2099 1.50741C28.7989 0.901412 29.5319 0.597412 30.4089 0.597412C31.2809 0.597412 32.0129 0.902412 32.6049 1.51141C33.1969 2.12041 33.4929 2.86041 33.4929 3.73241C33.4929 4.60941 33.1979 5.35141 32.6089 5.95741ZM28.7789 5.45441C29.2229 5.90441 29.7659 6.12841 30.4089 6.12841C31.0519 6.12841 31.5959 5.90341 32.0389 5.45441C32.4829 5.00441 32.7059 4.43041 32.7059 3.73241C32.7059 3.03441 32.4829 2.46041 32.0389 2.01041C31.5959 1.56041 31.0519 1.33641 30.4089 1.33641C29.7659 1.33641 29.2229 1.56141 28.7789 2.01041C28.3359 2.46041 28.1129 3.03441 28.1129 3.73241C28.1129 4.43041 28.3359 5.00441 28.7789 5.45441Z" stroke="#141414" stroke-width="0.2" stroke-miterlimit="10"/>
<path d="M34.5749 6.73242V0.732422H35.513L38.429 5.39942H38.4619L38.429 4.24342V0.732422H39.1999V6.73242H38.3949L35.344 1.83842H35.3109L35.344 2.99442V6.73242H34.5749Z" stroke="#141414" stroke-width="0.2" stroke-miterlimit="10"/>
</svg>
