<svg width="85" height="18" viewBox="0 0 85 18" fill="none" xmlns="http://www.w3.org/2000/svg">
<mask id="path-1-inside-1_51_328" fill="white">
<path d="M27.136 5.48354C24.784 5.48354 22.867 7.27254 22.867 9.73654C22.867 12.1855 24.784 13.9895 27.136 13.9895C29.489 13.9895 31.406 12.1855 31.406 9.73654C31.405 7.27254 29.488 5.48354 27.136 5.48354ZM27.136 12.3155C25.847 12.3155 24.736 11.2525 24.736 9.73754C24.736 8.20654 25.848 7.15954 27.136 7.15954C28.425 7.15954 29.536 8.20654 29.536 9.73754C29.536 11.2515 28.425 12.3155 27.136 12.3155ZM17.822 5.48354C15.47 5.48354 13.553 7.27254 13.553 9.73654C13.553 12.1855 15.47 13.9895 17.822 13.9895C20.175 13.9895 22.092 12.1855 22.092 9.73654C22.092 7.27254 20.175 5.48354 17.822 5.48354ZM17.822 12.3155C16.533 12.3155 15.422 11.2525 15.422 9.73754C15.422 8.20654 16.534 7.15954 17.822 7.15954C19.111 7.15954 20.222 8.20654 20.222 9.73754C20.223 11.2515 19.111 12.3155 17.822 12.3155ZM6.74399 6.78954V8.59354H11.062C10.933 9.60854 10.595 10.3495 10.079 10.8645C9.45099 11.4925 8.46799 12.1855 6.74399 12.1855C4.08599 12.1855 2.00799 10.0425 2.00799 7.38454C2.00799 4.72654 4.08599 2.58354 6.74399 2.58354C8.17799 2.58354 9.22499 3.14754 9.99799 3.87254L11.271 2.59954C10.191 1.56854 8.75799 0.779542 6.74399 0.779542C3.10299 0.779542 0.041992 3.74354 0.041992 7.38454C0.041992 11.0255 3.10299 13.9895 6.74399 13.9895C8.70899 13.9895 10.192 13.3445 11.351 12.1365C12.543 10.9445 12.914 9.26854 12.914 7.91554C12.914 7.49754 12.882 7.11054 12.817 6.78854H6.74399V6.78954ZM52.052 8.19054C51.698 7.24054 50.618 5.48354 48.411 5.48354C46.22 5.48354 44.399 7.20754 44.399 9.73654C44.399 12.1205 46.204 13.9895 48.62 13.9895C50.569 13.9895 51.697 12.7975 52.165 12.1045L50.715 11.1375C50.232 11.8465 49.571 12.3135 48.62 12.3135C47.67 12.3135 46.993 11.8785 46.558 11.0245L52.245 8.67254L52.052 8.19054ZM46.252 9.60854C46.204 7.96454 47.525 7.12754 48.476 7.12754C49.217 7.12754 49.845 7.49854 50.055 8.02954L46.252 9.60854ZM41.629 13.7325H43.497V1.23154H41.629V13.7325ZM38.567 6.43454H38.503C38.084 5.93454 37.278 5.48354 36.264 5.48354C34.137 5.48354 32.188 7.35254 32.188 9.75354C32.188 12.1375 34.137 13.9905 36.264 13.9905C37.279 13.9905 38.084 13.5395 38.503 13.0245H38.567V13.6365C38.567 15.2635 37.697 16.1335 36.296 16.1335C35.152 16.1335 34.443 15.3125 34.153 14.6195L32.526 15.2965C32.993 16.4235 34.233 17.8095 36.296 17.8095C38.487 17.8095 40.34 16.5205 40.34 13.3785V5.74254H38.568V6.43454H38.567ZM36.425 12.3155C35.136 12.3155 34.057 11.2355 34.057 9.75354C34.057 8.25454 35.136 7.15954 36.425 7.15954C37.697 7.15954 38.696 8.25454 38.696 9.75354C38.696 11.2355 37.697 12.3155 36.425 12.3155ZM60.806 1.23154H56.335V13.7325H58.2V8.99654H60.805C62.873 8.99654 64.907 7.49954 64.907 5.11454C64.907 2.72954 62.874 1.23154 60.806 1.23154ZM60.854 7.25654H58.2V2.97154H60.854C62.249 2.97154 63.041 4.12654 63.041 5.11454C63.041 6.08254 62.249 7.25654 60.854 7.25654ZM72.386 5.46154C71.035 5.46154 69.636 6.05654 69.057 7.37554L70.713 8.06654C71.067 7.37554 71.727 7.14954 72.418 7.14954C73.383 7.14954 74.364 7.72854 74.38 8.75754V8.88654C74.042 8.69354 73.318 8.40454 72.434 8.40454C70.649 8.40454 68.831 9.38554 68.831 11.2185C68.831 12.8915 70.295 13.9685 71.935 13.9685C73.189 13.9685 73.881 13.4055 74.315 12.7455H74.379V13.7105H76.181V8.91754C76.182 6.69954 74.524 5.46154 72.386 5.46154ZM72.16 12.3125C71.55 12.3125 70.697 12.0065 70.697 11.2505C70.697 10.2855 71.759 9.91554 72.676 9.91554C73.495 9.91554 73.882 10.0925 74.38 10.3335C74.235 11.4925 73.238 12.3125 72.16 12.3125ZM82.743 5.73454L80.604 11.1545H80.54L78.32 5.73454H76.31L79.639 13.3095L77.741 17.5235H79.687L84.818 5.73454H82.743ZM65.937 13.7325H67.802V1.23154H65.937V13.7325Z"/>
</mask>
<path d="M27.136 5.48354C24.784 5.48354 22.867 7.27254 22.867 9.73654C22.867 12.1855 24.784 13.9895 27.136 13.9895C29.489 13.9895 31.406 12.1855 31.406 9.73654C31.405 7.27254 29.488 5.48354 27.136 5.48354ZM27.136 12.3155C25.847 12.3155 24.736 11.2525 24.736 9.73754C24.736 8.20654 25.848 7.15954 27.136 7.15954C28.425 7.15954 29.536 8.20654 29.536 9.73754C29.536 11.2515 28.425 12.3155 27.136 12.3155ZM17.822 5.48354C15.47 5.48354 13.553 7.27254 13.553 9.73654C13.553 12.1855 15.47 13.9895 17.822 13.9895C20.175 13.9895 22.092 12.1855 22.092 9.73654C22.092 7.27254 20.175 5.48354 17.822 5.48354ZM17.822 12.3155C16.533 12.3155 15.422 11.2525 15.422 9.73754C15.422 8.20654 16.534 7.15954 17.822 7.15954C19.111 7.15954 20.222 8.20654 20.222 9.73754C20.223 11.2515 19.111 12.3155 17.822 12.3155ZM6.74399 6.78954V8.59354H11.062C10.933 9.60854 10.595 10.3495 10.079 10.8645C9.45099 11.4925 8.46799 12.1855 6.74399 12.1855C4.08599 12.1855 2.00799 10.0425 2.00799 7.38454C2.00799 4.72654 4.08599 2.58354 6.74399 2.58354C8.17799 2.58354 9.22499 3.14754 9.99799 3.87254L11.271 2.59954C10.191 1.56854 8.75799 0.779542 6.74399 0.779542C3.10299 0.779542 0.041992 3.74354 0.041992 7.38454C0.041992 11.0255 3.10299 13.9895 6.74399 13.9895C8.70899 13.9895 10.192 13.3445 11.351 12.1365C12.543 10.9445 12.914 9.26854 12.914 7.91554C12.914 7.49754 12.882 7.11054 12.817 6.78854H6.74399V6.78954ZM52.052 8.19054C51.698 7.24054 50.618 5.48354 48.411 5.48354C46.22 5.48354 44.399 7.20754 44.399 9.73654C44.399 12.1205 46.204 13.9895 48.62 13.9895C50.569 13.9895 51.697 12.7975 52.165 12.1045L50.715 11.1375C50.232 11.8465 49.571 12.3135 48.62 12.3135C47.67 12.3135 46.993 11.8785 46.558 11.0245L52.245 8.67254L52.052 8.19054ZM46.252 9.60854C46.204 7.96454 47.525 7.12754 48.476 7.12754C49.217 7.12754 49.845 7.49854 50.055 8.02954L46.252 9.60854ZM41.629 13.7325H43.497V1.23154H41.629V13.7325ZM38.567 6.43454H38.503C38.084 5.93454 37.278 5.48354 36.264 5.48354C34.137 5.48354 32.188 7.35254 32.188 9.75354C32.188 12.1375 34.137 13.9905 36.264 13.9905C37.279 13.9905 38.084 13.5395 38.503 13.0245H38.567V13.6365C38.567 15.2635 37.697 16.1335 36.296 16.1335C35.152 16.1335 34.443 15.3125 34.153 14.6195L32.526 15.2965C32.993 16.4235 34.233 17.8095 36.296 17.8095C38.487 17.8095 40.34 16.5205 40.34 13.3785V5.74254H38.568V6.43454H38.567ZM36.425 12.3155C35.136 12.3155 34.057 11.2355 34.057 9.75354C34.057 8.25454 35.136 7.15954 36.425 7.15954C37.697 7.15954 38.696 8.25454 38.696 9.75354C38.696 11.2355 37.697 12.3155 36.425 12.3155ZM60.806 1.23154H56.335V13.7325H58.2V8.99654H60.805C62.873 8.99654 64.907 7.49954 64.907 5.11454C64.907 2.72954 62.874 1.23154 60.806 1.23154ZM60.854 7.25654H58.2V2.97154H60.854C62.249 2.97154 63.041 4.12654 63.041 5.11454C63.041 6.08254 62.249 7.25654 60.854 7.25654ZM72.386 5.46154C71.035 5.46154 69.636 6.05654 69.057 7.37554L70.713 8.06654C71.067 7.37554 71.727 7.14954 72.418 7.14954C73.383 7.14954 74.364 7.72854 74.38 8.75754V8.88654C74.042 8.69354 73.318 8.40454 72.434 8.40454C70.649 8.40454 68.831 9.38554 68.831 11.2185C68.831 12.8915 70.295 13.9685 71.935 13.9685C73.189 13.9685 73.881 13.4055 74.315 12.7455H74.379V13.7105H76.181V8.91754C76.182 6.69954 74.524 5.46154 72.386 5.46154ZM72.16 12.3125C71.55 12.3125 70.697 12.0065 70.697 11.2505C70.697 10.2855 71.759 9.91554 72.676 9.91554C73.495 9.91554 73.882 10.0925 74.38 10.3335C74.235 11.4925 73.238 12.3125 72.16 12.3125ZM82.743 5.73454L80.604 11.1545H80.54L78.32 5.73454H76.31L79.639 13.3095L77.741 17.5235H79.687L84.818 5.73454H82.743ZM65.937 13.7325H67.802V1.23154H65.937V13.7325Z" fill="white" stroke="#141414" strokeWidth="2" mask="url(#path-1-inside-1_51_328)"/>
</svg>
