<svg xmlns="http://www.w3.org/2000/svg" width="32" height="33" viewBox="0 0 32 33" fill="none">
  <circle cx="16" cy="16.7324" r="16" fill="white"/>
  <path fill-rule="evenodd" clip-rule="evenodd" d="M15.9999 6.06641C13.103 6.06641 12.7398 6.07869 11.6021 6.1306C10.4667 6.18238 9.69133 6.36271 9.01285 6.62641C8.31142 6.89897 7.71656 7.26369 7.12353 7.85669C6.53054 8.44972 6.16581 9.04457 5.89326 9.746C5.62956 10.4245 5.44923 11.1999 5.39744 12.3352C5.34553 13.4729 5.33325 13.8362 5.33325 16.7331C5.33325 19.63 5.34553 19.9932 5.39744 21.1309C5.44923 22.2663 5.62956 23.0417 5.89326 23.7201C6.16581 24.4216 6.53054 25.0164 7.12353 25.6095C7.71656 26.2025 8.31142 26.5672 9.01285 26.8398C9.69133 27.1034 10.4667 27.2838 11.6021 27.3356C12.7398 27.3875 13.103 27.3997 15.9999 27.3997C18.8968 27.3997 19.2601 27.3875 20.3978 27.3356C21.5331 27.2838 22.3085 27.1034 22.987 26.8398C23.6884 26.5672 24.2833 26.2025 24.8763 25.6095C25.4693 25.0164 25.834 24.4216 26.1066 23.7201C26.3703 23.0417 26.5506 22.2663 26.6024 21.1309C26.6543 19.9932 26.6666 19.63 26.6666 16.7331C26.6666 13.8362 26.6543 13.4729 26.6024 12.3352C26.5506 11.1999 26.3703 10.4245 26.1066 9.746C25.834 9.04457 25.4693 8.44972 24.8763 7.85669C24.2833 7.26369 23.6884 6.89897 22.987 6.62641C22.3085 6.36271 21.5331 6.18238 20.3978 6.1306C19.2601 6.07869 18.8968 6.06641 15.9999 6.06641ZM15.9999 7.98828C18.848 7.98828 19.1854 7.99916 20.3102 8.05048C21.3502 8.0979 21.9149 8.27167 22.2908 8.41775C22.7887 8.61125 23.144 8.84239 23.5173 9.21567C23.8906 9.58891 24.1217 9.94424 24.3152 10.4421C24.4613 10.818 24.635 11.3828 24.6825 12.4228C24.7338 13.5475 24.7447 13.8849 24.7447 16.7331C24.7447 19.5811 24.7338 19.9185 24.6825 21.0433C24.635 22.0833 24.4613 22.6481 24.3152 23.0239C24.1217 23.5218 23.8906 23.8771 23.5173 24.2504C23.144 24.6237 22.7887 24.8548 22.2908 25.0483C21.9149 25.1944 21.3502 25.3682 20.3102 25.4156C19.1856 25.4669 18.8482 25.4778 15.9999 25.4778C13.1516 25.4778 12.8143 25.4669 11.6897 25.4156C10.6497 25.3682 10.0849 25.1944 9.70902 25.0483C9.21113 24.8548 8.8558 24.6237 8.48256 24.2504C8.10932 23.8771 7.87814 23.5218 7.68464 23.0239C7.53856 22.6481 7.36479 22.0833 7.31737 21.0433C7.26605 19.9185 7.25517 19.5811 7.25517 16.7331C7.25517 13.8849 7.26605 13.5475 7.31737 12.4228C7.36479 11.3828 7.53856 10.818 7.68464 10.4421C7.87814 9.94424 8.10928 9.58891 8.48256 9.21567C8.8558 8.84239 9.21113 8.61125 9.70902 8.41775C10.0849 8.27167 10.6497 8.0979 11.6897 8.05048C12.8144 7.99916 13.1518 7.98828 15.9999 7.98828Z" fill="black"/>
  <path fill-rule="evenodd" clip-rule="evenodd" d="M16 20.2888C14.0362 20.2888 12.4444 18.697 12.4444 16.7333C12.4444 14.7696 14.0362 13.1777 16 13.1777C17.9636 13.1777 19.5555 14.7696 19.5555 16.7333C19.5555 18.697 17.9636 20.2888 16 20.2888ZM16 11.2559C12.9748 11.2559 10.5225 13.7082 10.5225 16.7334C10.5225 19.7585 12.9748 22.2108 16 22.2108C19.0251 22.2108 21.4774 19.7585 21.4774 16.7334C21.4774 13.7082 19.0251 11.2559 16 11.2559Z" fill="black"/>
  <path fill-rule="evenodd" clip-rule="evenodd" d="M22.9738 11.0398C22.9738 11.7467 22.4007 12.3198 21.6938 12.3198C20.9869 12.3198 20.4138 11.7467 20.4138 11.0398C20.4138 10.3329 20.9869 9.75977 21.6938 9.75977C22.4007 9.75977 22.9738 10.3329 22.9738 11.0398Z" fill="black"/>
</svg>