<svg width="43" height="26" viewBox="0 0 43 26" fill="none" xmlns="http://www.w3.org/2000/svg">
<path d="M29.4055 0.114685C36.4594 0.114725 42.1778 5.7649 42.178 12.7348C42.178 19.7048 36.4595 25.3559 29.4055 25.3559C26.2433 25.3559 23.3519 24.2172 21.1213 22.3364C18.8908 24.2172 15.9993 25.3559 12.8372 25.3559C5.78316 25.3559 0.0646973 19.7049 0.0646973 12.7348C0.0648511 5.76488 5.78326 0.114685 12.8372 0.114685C15.9992 0.114702 18.8908 1.25254 21.1213 3.13324C23.3519 1.25257 26.2435 0.114685 29.4055 0.114685Z" fill="#ED0006"/>
<path d="M29.4055 0.114685C36.4594 0.114723 42.1778 5.7649 42.178 12.7348C42.178 19.7048 36.4595 25.3559 29.4055 25.3559C26.2428 25.3559 23.3511 24.2167 21.1204 22.3354C23.8649 20.0206 25.6077 16.5798 25.6077 12.7348C25.6076 8.8898 23.865 5.44896 21.1204 3.13422C23.351 1.25301 26.243 0.114685 29.4055 0.114685Z" fill="#F9A000"/>
<path d="M21.1204 3.13422C23.865 5.44896 25.6076 8.8898 25.6077 12.7348C25.6077 16.5798 23.8649 20.0206 21.1204 22.3354C18.3757 20.0206 16.6331 16.5798 16.6331 12.7348C16.6331 8.88976 18.3756 5.44896 21.1204 3.13422Z" fill="#FF5E00"/>
</svg>
