<svg width="44" height="19" viewBox="0 0 44 19" fill="none" xmlns="http://www.w3.org/2000/svg">
<path d="M28.0119 7.45551H20.5346C20.3865 7.45551 20.3125 7.56655 20.3125 7.6776V8.26986C20.3125 8.41793 20.4235 8.49196 20.5346 8.49196H26.1241V11.6013C25.976 11.3792 25.7909 11.1571 25.6058 10.935C24.9395 10.2687 24.2362 9.9356 23.4959 9.9356C22.9036 9.9356 22.4224 10.2317 22.0152 10.75C21.6821 11.1941 21.497 11.7124 21.497 12.1936C21.497 12.6748 21.5711 13.3041 21.9412 13.8963C22.3854 14.5996 23.1257 14.8217 23.792 14.8217C24.6434 14.8217 25.3467 14.2295 25.3467 13.4521C25.3467 13.0079 25.1246 12.6378 24.7174 12.3787L24.3103 12.1566V12.8229C24.2732 13.0079 23.9771 13.2671 23.644 13.2671C23.3478 13.2671 23.0887 13.156 22.9036 12.9709C22.7926 12.8599 22.7186 12.6378 22.7556 12.4897C22.7556 12.2676 22.8296 12.0825 22.9777 11.8975C23.1628 11.6754 23.3478 11.5643 23.644 11.5643C24.3843 11.5643 25.0136 11.8975 25.5318 12.6378C25.939 13.2671 26.1611 13.8593 26.1611 14.5256V16.0803L27.2716 16.7466C27.3086 16.7836 27.3456 16.7836 27.3826 16.7836C27.5307 16.7836 27.6047 16.6726 27.6047 16.5615V8.52898H28.0489C28.197 8.52898 28.271 8.41793 28.271 8.30688V7.71462C28.271 7.56655 28.16 7.45551 28.0119 7.45551Z" fill="#ED1C24"/>
<path d="M42.9668 7.45599H33.4906C33.3425 7.45599 33.2685 7.56703 33.2685 7.67808V8.71454C32.3431 7.75212 31.5287 7.2709 30.7884 7.2709C30.0851 7.2709 29.4928 7.41897 28.9746 7.82615C28.4934 8.19631 28.1973 8.67752 28.1973 9.23277C28.1973 10.8985 30.0481 10.8615 30.5293 10.6394C30.6033 10.6024 30.7144 10.5283 30.8254 10.5283C31.1956 10.5283 31.3436 10.8245 31.3436 11.0836C31.3436 11.4537 30.7884 11.7869 30.1221 11.7869C29.752 11.7869 29.5299 11.6758 29.3818 11.4537L29.0857 11.0095L28.9006 11.5278C28.8636 11.6388 28.7895 11.7869 28.7895 11.972C28.7895 12.3421 28.9746 12.7123 29.3448 13.0454C29.6779 13.3416 30.0851 13.4896 30.5293 13.4896C31.2326 13.4896 31.8249 13.2305 32.195 12.7123C32.5282 12.3051 32.6762 11.8239 32.6762 11.2687C32.6762 10.9725 32.5652 10.6394 32.3061 10.2692C32.0099 9.82503 31.6398 9.60293 31.2326 9.60293C31.0845 9.60293 30.8995 9.63995 30.7144 9.71398C30.6403 9.75099 30.4923 9.78801 30.4553 9.78801C30.3812 9.78801 30.2702 9.751 30.1961 9.63995C30.1221 9.56591 30.0481 9.45486 30.0481 9.26978C30.0481 8.8626 30.4182 8.45543 31.0845 8.45543H31.1216C31.5657 8.45543 32.0099 8.67752 32.4171 9.0847C32.7503 9.41785 33.0094 9.75099 33.2315 10.1212V16.0067L34.342 16.673C34.379 16.7101 34.416 16.7101 34.453 16.7101C34.6011 16.7101 34.6751 16.599 34.6751 16.488V8.52946H36.3779V13.6747L37.7105 14.23H37.7845C37.8955 14.23 38.0066 14.1559 38.0066 14.0079V13.9709C38.2287 12.4532 38.895 11.4167 40.0055 10.7875V11.0836C40.0055 11.3057 40.0055 11.8609 40.0425 12.1571C40.0425 12.3421 40.0425 12.4532 40.0795 12.5642C40.0795 13.1565 40.1535 14.0449 40.3386 14.7112C40.7088 15.9697 41.338 16.2659 41.7822 16.2659H41.8193C42.0784 16.2659 42.3005 16.1918 42.4485 16.0438C42.5226 15.9697 42.6336 15.8217 42.6336 15.5626C42.6336 15.3405 42.5966 15.1554 42.5226 15.0073L42.4115 14.8222L42.1894 14.8592C41.9673 14.9333 41.8563 14.9333 41.8563 14.8963H41.8193C41.7452 14.8963 41.7452 14.8963 41.7082 14.8592C41.6342 14.8222 41.4861 14.7112 41.3751 14.304C41.301 14.0079 41.264 13.6007 41.264 13.3786C41.264 11.7129 41.5972 10.4543 42.1524 10.1952H42.1894C42.2635 10.1582 42.3375 10.0841 42.3375 9.97309C42.3375 9.93608 42.3375 9.89906 42.3005 9.86204V9.82503C42.0414 9.3068 41.4861 8.93664 40.7458 8.75156H40.5977C40.0055 8.8626 39.3021 9.26978 38.4138 10.0101C38.1917 10.1952 37.9696 10.3803 37.7845 10.5654V8.52946H42.9668C43.1148 8.52946 43.1889 8.41841 43.1889 8.30736V7.7151C43.2259 7.56703 43.1148 7.45599 42.9668 7.45599Z" fill="#ED1C24"/>
<path d="M17.8701 10.1956C17.8701 10.4547 17.8701 10.6768 17.8331 10.8989C17.7591 11.9354 17.5 12.8978 17.0928 13.7862C16.9447 14.1564 16.7596 14.4895 16.5375 14.8227C14.9829 17.2657 12.2436 18.8945 9.13428 18.8945C7.80169 18.8945 6.54314 18.5983 5.43265 18.0801C2.47135 16.7105 0.398438 13.6752 0.398438 10.1956C0.398438 6.75311 2.39732 3.79181 5.24757 2.38519C5.02547 2.68132 4.80337 2.97745 4.61829 3.3106C4.61829 3.34762 4.58128 3.34762 4.58128 3.38463C4.47023 3.49568 4.35918 3.56971 4.24813 3.68076C4.10007 3.79181 3.98902 3.93988 3.84095 4.05093L3.76692 4.12496L3.69289 4.19899C3.65587 4.23601 3.61885 4.31004 3.54482 4.34706C3.47079 4.4581 3.35974 4.56915 3.28571 4.6802C2.91554 5.16141 2.61941 5.67964 2.39732 6.23489C2.3603 6.2719 2.3603 6.34593 2.32328 6.38295C2.28627 6.45698 2.28627 6.53102 2.24925 6.56803C2.24925 6.60505 2.21224 6.64207 2.21224 6.67908C2.17522 6.79013 2.1382 6.86416 2.10119 6.97521C2.06417 7.04924 2.06417 7.12328 2.02715 7.16029C2.02715 7.19731 1.99014 7.23433 1.99014 7.27134C1.99014 7.34537 1.95312 7.41941 1.95312 7.49344L1.84207 8.15973C1.84207 8.23377 1.84207 8.27078 1.80506 8.34481V9.2332C1.80506 11.6022 2.87853 13.7492 4.61829 15.1188C5.95088 16.1923 7.61661 16.8586 9.43041 16.8586C11.0961 16.8586 12.6138 16.3403 13.8724 15.4149C14.7978 14.7486 15.5381 13.8973 16.0933 12.8978C16.1674 12.7498 16.2414 12.6387 16.3154 12.4906C16.7596 11.5652 17.0187 10.5658 17.0187 9.49232V9.2332C17.0187 8.97409 17.0187 8.75199 16.9817 8.49288L17.0187 8.5299C17.1298 8.64094 17.2408 8.71498 17.3519 8.82603C17.4629 8.64094 17.574 8.49288 17.685 8.3078C17.7591 8.64094 17.7961 8.97409 17.8331 9.34425C17.8701 9.6774 17.8701 9.93651 17.8701 10.1956Z" fill="#ED1C24"/>
<path d="M10.17 3.19992L8.54128 0.201599C5.8391 1.42314 3.98828 4.12533 3.98828 7.27171C3.98828 8.86341 4.46949 10.3441 5.28385 11.5656C5.20982 11.1584 5.20982 10.7512 5.20982 10.307C5.24683 7.08663 7.28273 4.34742 10.17 3.19992Z" fill="#F7941D"/>
<path d="M11.4673 4.68024C12.1336 4.49516 12.874 4.42113 13.5773 4.42113C14.0215 4.42113 14.5027 4.45815 14.9099 4.53218L14.8728 3.19959L14.7988 0.534421C14.5027 0.497404 14.1695 0.460388 13.8364 0.460388C12.3557 0.460388 10.9861 0.9416 9.87564 1.71894L10.764 3.34766C9.17233 3.9029 7.87676 5.01339 7.06241 6.45703C6.65523 7.16034 6.3591 7.97469 6.24805 8.82607C6.47014 8.38187 6.72926 7.97469 7.02539 7.60453C8.09886 6.19791 9.65355 5.12444 11.4673 4.68024Z" fill="#ED1C24"/>
<path d="M15.354 3.16254L15.428 5.05037C14.7987 4.86529 14.1694 4.75424 13.4661 4.75424C12.1706 4.75424 10.949 5.1244 9.87555 5.75368C8.54297 6.56803 7.50651 7.8636 6.98828 9.38127C7.50651 8.67796 8.13579 8.04869 8.87611 7.56747C9.94958 6.86416 11.2452 6.45699 12.6148 6.45699C13.6512 6.45699 14.6136 6.67908 15.502 7.08626C16.1683 7.38239 16.7606 7.78957 17.2788 8.3078L18.3153 6.75312L19.6479 4.71722C18.4633 3.7548 16.9827 3.16254 15.354 3.16254Z" fill="#F7941D"/>
<path d="M17.0184 9.30798V9.5671C17.0184 11.1218 16.3891 12.4174 16.3151 12.5654C16.241 12.7135 16.167 12.8245 16.093 12.9726C15.5377 13.972 14.7974 14.8234 13.872 15.4897C12.6134 16.3781 11.0958 16.9333 9.43004 16.9333C7.61624 16.9333 5.91349 16.3041 4.61792 15.1936C2.91518 13.787 1.80469 11.677 1.80469 9.30798V8.41959C1.80469 8.34556 1.80469 8.30854 1.8417 8.23451L1.95275 7.56822C1.95275 7.49419 1.98977 7.42015 1.98977 7.34612C1.98977 7.30911 2.02678 7.27209 2.02678 7.23507C2.0638 7.16104 2.0638 7.08701 2.10082 7.04999C2.13783 6.93894 2.17485 6.82789 2.21187 6.75386C2.21187 6.71684 2.24888 6.67983 2.24888 6.64281C2.2859 6.56878 2.2859 6.49475 2.32292 6.45773C2.35993 6.42071 2.35993 6.34668 2.39695 6.30967C2.61905 5.75442 2.95219 5.23619 3.28534 4.75498C3.35937 4.64393 3.47042 4.53288 3.54445 4.42184C3.58147 4.38482 3.61849 4.31079 3.69252 4.27377C3.72953 4.23675 3.72953 4.19974 3.76655 4.19974C3.80357 4.16272 3.80357 4.1257 3.84058 4.1257C3.95163 3.97764 4.0997 3.86659 4.24776 3.75554C4.35881 3.64449 4.46986 3.57046 4.58091 3.45941C4.58091 3.49643 4.54389 3.49643 4.54389 3.53344C4.54389 3.57046 4.50688 3.60748 4.50688 3.60748C4.06268 4.49587 3.76655 5.56934 3.6555 6.67983C3.61849 6.97596 3.61849 7.27209 3.61849 7.60524C3.61849 11.603 5.95051 14.8234 8.83778 14.8234H9.13391C9.54109 14.8234 9.94827 14.7494 10.3554 14.6753C12.3173 14.1571 13.7609 12.3433 13.7609 10.2334V10.1223C13.7239 8.86379 13.2057 7.71628 12.3543 6.93894C12.9466 6.93894 13.5388 7.04999 14.0941 7.19806C15.1676 7.45717 16.13 7.9754 16.9814 8.64169L17.0184 8.67871C16.9814 8.82677 17.0184 9.08589 17.0184 9.30798Z" fill="#F7941D"/>
<path d="M17.02 9.30758V9.5667C17.02 11.1954 16.2796 12.602 16.2796 12.602C16.2056 12.7501 16.1316 12.8611 16.0575 13.0092C15.5023 14.0086 14.725 14.86 13.7995 15.5263C12.504 16.4887 10.9493 16.97 9.32057 16.97C7.54379 16.97 5.84104 16.3407 4.47144 15.2302C2.69466 13.7866 1.6582 11.6026 1.6582 9.30758C1.6582 7.01257 2.69466 4.82861 4.47144 3.38498L4.54547 3.31094C4.54547 3.34796 4.50846 3.34796 4.50846 3.38498C4.50846 3.42199 4.47144 3.42199 4.47144 3.45901C2.73168 4.90264 1.73224 7.01257 1.73224 9.30758C1.73224 11.6026 2.73168 13.7125 4.50846 15.1932C5.84104 16.3037 7.58081 16.8959 9.32057 16.8959C10.9123 16.8959 12.467 16.4147 13.7625 15.4523C14.6879 14.786 15.4283 13.9346 15.9835 12.9352C16.0575 12.7871 16.1316 12.6761 16.1686 12.528C16.1686 12.528 16.9089 11.1584 16.9089 9.52968V9.27057C16.9089 9.01145 16.9089 8.78935 16.8719 8.53024V8.49322L16.9089 8.53024L16.9459 8.56726C17.02 8.86339 17.02 9.08548 17.02 9.30758Z" fill="#F7941D"/>
</svg>
