<svg width="16" height="18" viewBox="0 0 16 18" fill="none" xmlns="http://www.w3.org/2000/svg">
<path d="M7.8928 6.86667V17M7.8928 2.06667V1M11.6261 2.82116L12.3806 2.06667M13.8 4.93742L14.7856 4.52924M4.15947 2.82116L3.40498 2.06667M1.9856 4.93742L1 4.52924M12.6928 10.0667H3.0928V15.9333C3.0928 16.2162 3.20518 16.4875 3.40522 16.6876C3.60526 16.8876 3.87657 17 4.15947 17H11.6261C11.909 17 12.1803 16.8876 12.3804 16.6876C12.5804 16.4875 12.6928 16.2162 12.6928 15.9333V10.0667ZM2.55947 6.86667H13.2261C13.2261 6.86667 13.7595 6.86667 13.7595 7.4V9.53333C13.7595 9.53333 13.7595 10.0667 13.2261 10.0667H2.55947C2.55947 10.0667 2.02613 10.0667 2.02613 9.53333V7.4C2.02613 7.4 2.02613 6.86667 2.55947 6.86667Z" stroke="#FF6B01" strokeWidth="1.06667" strokeLinecap="round" strokeLinejoin="round"/>
<path d="M7.8928 6.86667V17M7.8928 2.06667V1M11.6261 2.82116L12.3806 2.06667M13.8 4.93742L14.7856 4.52924M4.15947 2.82116L3.40498 2.06667M1.9856 4.93742L1 4.52924M12.6928 10.0667H3.0928V15.9333C3.0928 16.2162 3.20518 16.4875 3.40522 16.6876C3.60526 16.8876 3.87657 17 4.15947 17H11.6261C11.909 17 12.1803 16.8876 12.3804 16.6876C12.5804 16.4875 12.6928 16.2162 12.6928 15.9333V10.0667ZM2.55947 6.86667H13.2261C13.2261 6.86667 13.7595 6.86667 13.7595 7.4V9.53333C13.7595 9.53333 13.7595 10.0667 13.2261 10.0667H2.55947C2.55947 10.0667 2.02613 10.0667 2.02613 9.53333V7.4C2.02613 7.4 2.02613 6.86667 2.55947 6.86667Z" stroke="#FF6B01" strokeWidth="1.06667" strokeLinecap="round" strokeLinejoin="round"/>
<path d="M7.8928 6.86667V17M7.8928 2.06667V1M11.6261 2.82116L12.3806 2.06667M13.8 4.93742L14.7856 4.52924M4.15947 2.82116L3.40498 2.06667M1.9856 4.93742L1 4.52924M12.6928 10.0667H3.0928V15.9333C3.0928 16.2162 3.20518 16.4875 3.40522 16.6876C3.60526 16.8876 3.87657 17 4.15947 17H11.6261C11.909 17 12.1803 16.8876 12.3804 16.6876C12.5804 16.4875 12.6928 16.2162 12.6928 15.9333V10.0667ZM2.55947 6.86667H13.2261C13.2261 6.86667 13.7595 6.86667 13.7595 7.4V9.53333C13.7595 9.53333 13.7595 10.0667 13.2261 10.0667H2.55947C2.55947 10.0667 2.02613 10.0667 2.02613 9.53333V7.4C2.02613 7.4 2.02613 6.86667 2.55947 6.86667Z" stroke="#FF6B01" strokeWidth="1.06667" strokeLinecap="round" strokeLinejoin="round"/>
</svg>
