  <svg
                  xmlns="http://www.w3.org/2000/svg"
                  width="46"
                  height="16"
                  viewBox="0 0 46 16"
                  fill="none"
                >
                  <path
                    fill-rule="evenodd"
                    clip-rule="evenodd"
                    d="M11.6813 15.5113H7.80147L4.89208 4.08538C4.75399 3.55978 4.46078 3.09513 4.02948 2.87613C2.95312 2.32578 1.76705 1.88779 0.473145 1.66689V1.22699H6.72322C7.58582 1.22699 8.23277 1.88779 8.3406 2.65523L9.85015 10.8971L13.7281 1.22699H17.5001L11.6813 15.5113ZM19.6568 15.5113H15.9927L19.0099 1.22699H22.6741L19.6568 15.5113ZM27.4134 5.18452C27.5212 4.41517 28.1681 3.97527 28.9229 3.97527C30.109 3.86482 31.401 4.08572 32.4792 4.63417L33.1262 1.55869C32.0479 1.11879 30.8619 0.897888 29.7855 0.897888C26.2292 0.897888 23.6414 2.87648 23.6414 5.62251C23.6414 7.71155 25.4744 8.80844 26.7683 9.46924C28.1681 10.1281 28.7073 10.568 28.5994 11.2269C28.5994 12.2153 27.5212 12.6552 26.4448 12.6552C25.1509 12.6552 23.857 12.3257 22.6728 11.7754L22.0259 14.8528C23.3198 15.4012 24.7196 15.6221 26.0135 15.6221C30.0012 15.7307 32.4792 13.754 32.4792 10.787C32.4792 7.05075 27.4134 6.83176 27.4134 5.18452ZM45.303 15.5113L42.3937 1.22699H39.2686C38.6217 1.22699 37.9747 1.66689 37.7591 2.32578L32.3716 15.5113H36.1436L36.8965 13.4242H41.5311L41.9623 15.5113H45.303ZM39.8085 5.07367L40.8849 10.4572H37.8677L39.8085 5.07367Z"
                    fill="#172B85"
                  />
                </svg>