<svg xmlns="http://www.w3.org/2000/svg" width="22" height="16" viewBox="0 0 22 16" fill="none">
  <path d="M10.9866 0.398438C11.0417 0.398445 17.6618 0.400419 19.3118 0.841797C20.229 1.08364 20.955 1.79555 21.2014 2.69531C21.6506 4.3247 21.6661 7.69327 21.6663 7.73145C21.6663 7.73145 21.6669 11.1434 21.2151 12.7686C20.9686 13.6683 20.2427 14.3803 19.3254 14.6221C17.6753 15.0635 11.0537 15.0654 11.0002 15.0654C11.0002 15.0654 4.33248 15.0652 2.67505 14.6221C1.75771 14.3803 1.03193 13.6683 0.7854 12.7686C0.333539 11.13 0.333252 7.73145 0.333252 7.73145C0.333266 7.69336 0.336123 4.32506 0.771729 2.70898C1.0182 1.80911 1.74396 1.09723 2.66138 0.855469C4.3186 0.412307 10.9866 0.398438 10.9866 0.398438ZM8.86353 10.874L14.3958 7.73047L8.86353 4.58789V10.874Z" fill="black"/>
</svg>